<svg id="Circle3" data-name="Circle3" xmlns="http://www.w3.org/2000/svg" viewBox="0 0 246.1 227.01">    
<defs><style>.Circle-1,.Circle-3{fill:#e28924;}.Circle-2,.Circle-3{font-size:11.13px;font-family:Merriweather-Bold, Merriweather;font-weight:700;}.Circle-2{fill:#194a9d;}</style></defs><circle class="Circle-1" cx="123.05" cy="113.36" r="111.26"/><text class="Circle-2" transform="matrix(0.9, 0.44, -0.44, 0.9, 172.17, 11.16)"> </text><text class="Circle-3" transform="translate(174.48 12.24) rotate(28.86)">C</text><text class="Circle-3" transform="matrix(0.85, 0.53, -0.53, 0.85, 180.8, 15.74)">a</text><text class="Circle-3" transform="translate(186.04 19.07) rotate(34.95)">f</text><text class="Circle-3" transform="translate(189.7 21.6) rotate(37.58)">é</text><text class="Circle-3" transform="matrix(0.77, 0.64, -0.64, 0.77, 194.47, 25.31)"> </text><text class="Circle-2" transform="translate(196.46 26.91) rotate(42.13)">-</text><text class="Circle-2" transform="translate(201.57 31.59) rotate(44.51)"> </text><text class="Circle-3" transform="translate(203.44 33.35) rotate(46.98)">P</text><text class="Circle-3" transform="translate(208.36 38.65) rotate(50.31)">e</text><text class="Circle-3" transform="matrix(0.59, 0.81, -0.81, 0.59, 212.23, 43.27)">n</text><text class="Circle-3" transform="translate(216.63 49.3) rotate(57.01)">s</text><text class="Circle-3" transform="matrix(0.51, 0.86, -0.86, 0.51, 219.7, 54.07)">i</text><text class="Circle-3" transform="translate(221.65 57.29) rotate(62.1)">o</text><text class="Circle-3" transform="translate(224.89 63.37) rotate(65.74)">n</text><text class="Circle-3" transform="translate(227.91 70.2) rotate(68.28)"> </text><text class="Circle-2" transform="matrix(0.33, 0.94, -0.94, 0.33, 228.91, 72.58)">-</text><text class="Circle-2" transform="translate(231.16 79.13) rotate(73.12)"> </text><text class="Circle-3" transform="matrix(0.25, 0.97, -0.97, 0.25, 231.96, 81.57)">T</text><text class="Circle-3" transform="translate(233.84 89.13) rotate(79.05)">r</text><text class="Circle-3" transform="translate(234.83 94.19) rotate(81.89)">e</text><text class="Circle-3" transform="translate(235.73 100.11) rotate(85.65)">ff</text><text class="Circle-3" transform="translate(236.33 109.07) rotate(88.53)"> </text><text class="Circle-2" transform="matrix(-0.02, 1, -1, -0.02, 236.45, 111.63)">-</text><text class="Circle-2" transform="translate(236.3 118.55) rotate(93.24)"> </text><text class="Circle-3" transform="translate(236.2 121.12) rotate(95.71)">C</text><text class="Circle-3" transform="translate(235.48 128.28) rotate(99.08)">a</text><text class="Circle-3" transform="translate(234.48 134.41) rotate(101.79)">f</text><text class="Circle-3" transform="translate(233.59 138.76) rotate(104.45)">é</text><text class="Circle-3" transform="translate(232.05 144.61) rotate(106.64)"> </text><text class="Circle-2" transform="translate(231.36 147.07) rotate(109.06)">-</text><text class="Circle-2" transform="matrix(-0.37, 0.93, -0.93, -0.37, 229.06, 153.61)"> </text><text class="Circle-3" transform="translate(228.17 156.02) rotate(113.98)">P</text><text class="Circle-3" transform="translate(225.21 162.62) rotate(117.34)">e</text><text class="Circle-3" transform="matrix(-0.51, 0.86, -0.86, -0.51, 222.48, 167.96)">n</text><text class="Circle-3" transform="matrix(-0.56, 0.83, -0.83, -0.56, 218.64, 174.38)">s</text><text class="Circle-3" transform="matrix(-0.59, 0.8, -0.8, -0.59, 215.44, 179.08)">i</text><text class="Circle-3" transform="translate(213.24 182.12) rotate(129.13)">o</text><text class="Circle-3" transform="translate(208.9 187.48) rotate(132.74)">n</text><text class="Circle-3" transform="matrix(-0.71, 0.7, -0.7, -0.71, 203.78, 192.94)"> </text><text class="Circle-2" transform="translate(201.99 194.78) rotate(137.65)">-</text><text class="Circle-2" transform="matrix(-0.77, 0.64, -0.64, -0.77, 196.84, 199.42)"> </text><text class="Circle-3" transform="translate(194.94 201.09) rotate(142.63)">T</text><text class="Circle-3" transform="matrix(-0.83, 0.56, -0.56, -0.83, 188.7, 205.81)">r</text><text class="Circle-3" transform="translate(184.44 208.71) rotate(148.72)">ef</text><text class="Circle-3" transform="translate(179.35 211.87) rotate(152.5)">f</text><text class="Circle-3" transform="matrix(-0.91, 0.42, -0.42, -0.91, 171.35, 215.94)"> </text><text class="Circle-3" transform="translate(168.98 217.03) rotate(156.74)"> </text><text class="Circle-3" transform="translate(73.93 215.61) rotate(-152.44)">C</text><text class="Circle-3" transform="matrix(-0.86, -0.51, 0.51, -0.86, 67.56, 212.27)">a</text><text class="Circle-3" transform="matrix(-0.83, -0.55, 0.55, -0.83, 62.24, 209.06)">f</text><text class="Circle-3" transform="matrix(-0.81, -0.59, 0.59, -0.81, 58.52, 206.61)">é</text><text class="Circle-3" transform="translate(53.67 203.01) rotate(-141.56)"> </text><text class="Circle-2" transform="matrix(-0.76, -0.65, 0.65, -0.76, 51.64, 201.46)">-</text><text class="Circle-2" transform="matrix(-0.73, -0.68, 0.68, -0.73, 46.42, 196.89)"> </text><text class="Circle-3" transform="translate(44.51 195.17) rotate(-134.32)">P</text><text class="Circle-3" transform="translate(39.47 189.99) rotate(-131)">e</text><text class="Circle-3" transform="matrix(-0.61, -0.79, 0.79, -0.61, 35.51, 185.47)">n</text><text class="Circle-3" transform="translate(30.97 179.54) rotate(-124.3)">s</text><text class="Circle-3" transform="translate(27.78 174.83) rotate(-121.91)">i</text><text class="Circle-3" transform="translate(25.75 171.64) rotate(-119.21)">o</text><text class="Circle-3" transform="translate(22.38 165.64) rotate(-115.57)">n</text><text class="Circle-3" transform="translate(19.21 158.89) rotate(-113.04)"> </text><text class="Circle-2" transform="translate(18.16 156.55) rotate(-110.62)">-</text><text class="Circle-2" transform="matrix(-0.31, -0.95, 0.95, -0.31, 15.75, 150.03)"> </text><text class="Circle-3" transform="matrix(-0.27, -0.96, 0.96, -0.27, 14.9, 147.63)">T</text><text class="Circle-3" transform="translate(12.84 140.1) rotate(-102.26)">r</text><text class="Circle-3" transform="matrix(-0.16, -0.99, 0.99, -0.16, 11.74, 135.08)">e</text><text class="Circle-3" transform="translate(10.7 129.17) rotate(-95.65)">ff</text><text class="Circle-3" transform="translate(9.89 120.23) rotate(-92.77)"> </text><text class="Circle-2" transform="translate(9.76 117.66) rotate(-90.93)">-</text><text class="Circle-2" transform="translate(9.72 110.74) rotate(-88.05)"> </text><text class="Circle-3" transform="translate(9.75 108.19) rotate(-85.6)">C</text><text class="Circle-3" transform="matrix(0.14, -0.99, 0.99, 0.14, 10.32, 101)">a</text><text class="Circle-3" transform="matrix(0.18, -0.98, 0.98, 0.18, 11.17, 94.87)">f</text><text class="Circle-3" transform="translate(11.96 90.48) rotate(-76.87)">é</text><text class="Circle-3" transform="translate(13.37 84.6) rotate(-74.68)"> </text><text class="Circle-2" transform="matrix(0.3, -0.95, 0.95, 0.3, 14, 82.12)">-</text><text class="Circle-2" transform="translate(16.15 75.53) rotate(-69.85)"> </text><text class="Circle-3" transform="translate(16.99 73.1) rotate(-67.34)">P</text><text class="Circle-3" transform="translate(19.79 66.44) rotate(-63.98)">e</text><text class="Circle-3" transform="matrix(0.49, -0.87, 0.87, 0.49, 22.4, 61.03)">n</text><text class="Circle-3" transform="matrix(0.54, -0.84, 0.84, 0.54, 26.08, 54.54)">s</text><text class="Circle-3" transform="translate(29.18 49.76) rotate(-54.86)">i</text><text class="Circle-3" transform="matrix(0.61, -0.79, 0.79, 0.61, 31.32, 46.65)">o</text><text class="Circle-3" transform="translate(35.53 41.21) rotate(-48.57)">n</text><text class="Circle-3" transform="matrix(0.69, -0.72, 0.72, 0.69, 40.52, 35.63)"> </text><text class="Circle-2" transform="matrix(0.72, -0.69, 0.69, 0.72, 42.27, 33.75)">-</text><text class="Circle-2" transform="translate(47.32 29) rotate(-41.27)"> </text><text class="Circle-3" transform="translate(49.19 27.27) rotate(-38.67)">T</text><text class="Circle-3" transform="translate(55.3 22.43) rotate(-35.42)">r</text><text class="Circle-3" transform="translate(59.49 19.44) rotate(-32.6)">ef</text><text class="Circle-3" transform="translate(64.52 16.15) rotate(-28.82)">f</text><text class="Circle-3" transform="translate(72.41 11.9) rotate(-25.9)"> </text>
</svg>