<svg id="Circle3" data-name="Circle3" xmlns="http://www.w3.org/2000/svg" viewBox="0 0 246.08 246.08">
<defs><style>.Circle-1,.Circle-3{fill:#e28924;}.Circle-2,.Circle-3{font-size:11.13px;font-family:Merriweather-Bold, Merriweather;font-weight:700;}.Circle-2{fill:#194a9d;}</style></defs><circle class="Circle-1" cx="123.04" cy="123.04" r="111.26"/><text class="Circle-2" transform="matrix(0.9, 0.44, -0.44, 0.9, 172.16, 20.84)"> </text><text class="Circle-3" transform="translate(174.47 21.93) rotate(28.86)">C</text><text class="Circle-3" transform="matrix(0.85, 0.53, -0.53, 0.85, 180.79, 25.43)">a</text><text class="Circle-3" transform="translate(186.03 28.76) rotate(34.95)">f</text><text class="Circle-3" transform="translate(189.69 31.29) rotate(37.58)">é</text><text class="Circle-3" transform="matrix(0.77, 0.64, -0.64, 0.77, 194.46, 35)"> </text><text class="Circle-2" transform="translate(196.45 36.59) rotate(42.13)">-</text><text class="Circle-2" transform="translate(201.56 41.27) rotate(44.51)"> </text><text class="Circle-3" transform="translate(203.43 43.04) rotate(46.98)">P</text><text class="Circle-3" transform="translate(208.35 48.34) rotate(50.31)">e</text><text class="Circle-3" transform="matrix(0.59, 0.81, -0.81, 0.59, 212.22, 52.95)">n</text><text class="Circle-3" transform="translate(216.62 58.98) rotate(57.01)">s</text><text class="Circle-3" transform="matrix(0.51, 0.86, -0.86, 0.51, 219.69, 63.76)">i</text><text class="Circle-3" transform="translate(221.64 66.97) rotate(62.1)">o</text><text class="Circle-3" transform="translate(224.88 73.06) rotate(65.74)">n</text><text class="Circle-3" transform="translate(227.9 79.89) rotate(68.28)"> </text><text class="Circle-2" transform="matrix(0.33, 0.94, -0.94, 0.33, 228.9, 82.26)">-</text><text class="Circle-2" transform="translate(231.15 88.82) rotate(73.12)"> </text><text class="Circle-3" transform="matrix(0.25, 0.97, -0.97, 0.25, 231.95, 91.25)">T</text><text class="Circle-3" transform="translate(233.83 98.81) rotate(79.05)">r</text><text class="Circle-3" transform="translate(234.82 103.87) rotate(81.89)">e</text><text class="Circle-3" transform="translate(235.72 109.79) rotate(85.65)">ff</text><text class="Circle-3" transform="translate(236.32 118.75) rotate(88.53)"> </text><text class="Circle-2" transform="matrix(0.44, -0.9, 0.9, 0.44, 20.84, 73.92)"> </text><text class="Circle-3" transform="matrix(0.48, -0.88, 0.88, 0.48, 21.93, 71.62)">C</text><text class="Circle-3" transform="matrix(0.53, -0.85, 0.85, 0.53, 25.43, 65.29)">a</text><text class="Circle-3" transform="translate(28.76 60.05) rotate(-55.05)">f</text><text class="Circle-3" transform="translate(31.29 56.39) rotate(-52.42)">é</text><text class="Circle-3" transform="matrix(0.64, -0.77, 0.77, 0.64, 35, 51.62)"> </text><text class="Circle-2" transform="translate(36.59 49.63) rotate(-47.87)">-</text><text class="Circle-2" transform="translate(41.27 44.52) rotate(-45.49)"> </text><text class="Circle-3" transform="translate(43.04 42.65) rotate(-43.02)">P</text><text class="Circle-3" transform="translate(48.34 37.73) rotate(-39.69)">e</text><text class="Circle-3" transform="matrix(0.81, -0.59, 0.59, 0.81, 52.95, 33.87)">n</text><text class="Circle-3" transform="translate(58.98 29.46) rotate(-32.99)">s</text><text class="Circle-3" transform="matrix(0.86, -0.51, 0.51, 0.86, 63.75, 26.39)">i</text><text class="Circle-3" transform="translate(66.97 24.44) rotate(-27.9)">o</text><text class="Circle-3" transform="translate(73.05 21.21) rotate(-24.26)">n</text><text class="Circle-3" transform="translate(79.89 18.18) rotate(-21.72)"> </text><text class="Circle-2" transform="matrix(0.94, -0.33, 0.33, 0.94, 82.26, 17.18)">-</text><text class="Circle-2" transform="translate(88.82 14.93) rotate(-16.88)"> </text><text class="Circle-3" transform="matrix(0.97, -0.25, 0.25, 0.97, 91.25, 14.13)">T</text><text class="Circle-3" transform="translate(98.81 12.25) rotate(-10.95)">r</text><text class="Circle-3" transform="translate(103.87 11.26) rotate(-8.11)">e</text><text class="Circle-3" transform="translate(109.79 10.36) rotate(-4.35)">ff</text><text class="Circle-3" transform="translate(118.75 9.76) rotate(-1.47)"> </text><text class="Circle-2" transform="matrix(-0.9, -0.44, 0.44, -0.9, 73.92, 225.24)"> </text><text class="Circle-3" transform="translate(71.62 224.15) rotate(-151.14)">C</text><text class="Circle-3" transform="matrix(-0.85, -0.53, 0.53, -0.85, 65.29, 220.65)">a</text><text class="Circle-3" transform="translate(60.05 217.32) rotate(-145.05)">f</text><text class="Circle-3" transform="translate(56.39 214.79) rotate(-142.42)">é</text><text class="Circle-3" transform="matrix(-0.77, -0.64, 0.64, -0.77, 51.62, 211.08)"> </text><text class="Circle-2" transform="translate(49.63 209.49) rotate(-137.87)">-</text><text class="Circle-2" transform="translate(44.52 204.81) rotate(-135.49)"> </text><text class="Circle-3" transform="translate(42.65 203.04) rotate(-133.02)">P</text><text class="Circle-3" transform="translate(37.73 197.74) rotate(-129.69)">e</text><text class="Circle-3" transform="matrix(-0.59, -0.81, 0.81, -0.59, 33.87, 193.13)">n</text><text class="Circle-3" transform="translate(29.46 187.1) rotate(-122.99)">s</text><text class="Circle-3" transform="matrix(-0.51, -0.86, 0.86, -0.51, 26.39, 182.32)">i</text><text class="Circle-3" transform="translate(24.44 179.11) rotate(-117.9)">o</text><text class="Circle-3" transform="translate(21.21 173.02) rotate(-114.26)">n</text><text class="Circle-3" transform="translate(18.18 166.19) rotate(-111.72)"> </text><text class="Circle-2" transform="matrix(-0.33, -0.94, 0.94, -0.33, 17.18, 163.82)">-</text><text class="Circle-2" transform="translate(14.93 157.26) rotate(-106.88)"> </text><text class="Circle-3" transform="matrix(-0.25, -0.97, 0.97, -0.25, 14.13, 154.83)">T</text><text class="Circle-3" transform="translate(12.25 147.27) rotate(-100.95)">r</text><text class="Circle-3" transform="translate(11.26 142.21) rotate(-98.11)">e</text><text class="Circle-3" transform="translate(10.36 136.29) rotate(-94.35)">ff</text><text class="Circle-3" transform="translate(9.76 127.33) rotate(-91.47)"> </text><text class="Circle-2" transform="translate(225.24 172.16) rotate(116.38)"> </text><text class="Circle-3" transform="matrix(-0.48, 0.88, -0.88, -0.48, 224.15, 174.47)">C</text><text class="Circle-3" transform="translate(220.65 180.79) rotate(122.25)">a</text><text class="Circle-3" transform="translate(217.32 186.04) rotate(124.95)">f</text><text class="Circle-3" transform="translate(214.79 189.69) rotate(127.58)">é</text><text class="Circle-3" transform="matrix(-0.64, 0.77, -0.77, -0.64, 211.08, 194.46)"> </text><text class="Circle-2" transform="translate(209.49 196.45) rotate(132.13)">-</text><text class="Circle-2" transform="translate(204.81 201.56) rotate(134.51)"> </text><text class="Circle-3" transform="translate(203.04 203.43) rotate(136.98)">P</text><text class="Circle-3" transform="matrix(-0.77, 0.64, -0.64, -0.77, 197.75, 208.35)">e</text><text class="Circle-3" transform="translate(193.13 212.22) rotate(143.7)">n</text><text class="Circle-3" transform="translate(187.1 216.62) rotate(147.01)">s</text><text class="Circle-3" transform="translate(182.33 219.7) rotate(149.4)">i</text><text class="Circle-3" transform="translate(179.11 221.64) rotate(152.1)">o</text><text class="Circle-3" transform="translate(173.03 224.88) rotate(155.74)">n</text><text class="Circle-3" transform="translate(166.19 227.9) rotate(158.28)"> </text><text class="Circle-2" transform="matrix(-0.94, 0.33, -0.33, -0.94, 163.82, 228.9)">-</text><text class="Circle-2" transform="translate(157.26 231.15) rotate(163.12)"> </text><text class="Circle-3" transform="translate(154.83 231.95) rotate(165.77)">T</text><text class="Circle-3" transform="matrix(-0.98, 0.19, -0.19, -0.98, 147.27, 233.83)">r</text><text class="Circle-3" transform="translate(142.21 234.82) rotate(171.89)">e</text><text class="Circle-3" transform="matrix(-1, 0.08, -0.08, -1, 136.29, 235.72)">ff</text><text class="Circle-3" transform="matrix(-1, 0.03, -0.03, -1, 127.33, 236.33)"> </text>
</svg>