<svg id="Sniggle" class="noDesktop" xmlns="http://www.w3.org/2000/svg" viewBox="0 0 253.39 56.91"><defs><style>.sniggle-1{fill:#e28924;}</style></defs><path class="sniggle-1" d="M246.24,107.6c-2.2,1.08-6.92.15-8.7-1.68a74,74,0,0,0-17.93-13.38c-15.13-8.18-30.34-11.12-43.83,11.11-18.5,30.48-38.41-14.86-62-17.32-24.59-2.56-16.3,29.1-61.33-3.93-16-11.74-29.88,2.53-41.25,17.32-6.74,8.79-12.35,4.62-14.51,4.06l3.08,22.1C36.4,136.27,29.35,90.79,40.81,89.5c3.25-.36,18.1,6.09,24.27,13.68.39.49.78,1,1.22,1.45,10.43,11.23,21.92,15.72,46.52-3.34,6.79-5.26,17.05,9.44,26.48,19.59,30.61,32.88,55.78-30,80.87-11.26,10,7.45,24.58,22.6,29.89,25.36Z" transform="translate(3.33 -78.07)"/></svg>