<svg id="Sniggle" xmlns="http://www.w3.org/2000/svg" viewBox="0 0 246.1 132.7"><defs><style>.sniggle-1{fill:#e28924;}</style></defs><path class="sniggle-1" d="M246.1,50.11c-4.85,3.06-11,3.66-19-.89-21.78-12.44-45.78-30.66-56.44,23.11s-39.16-9.14-61.78-4.44c-23.56,4.89-8.91,50.84-58.22,16C33.15,71.51,23.26,98.56,15.85,125.52c-4.39,16-13.71,10.91-15.85,10.81v32.15c47.26,3.71,33.33-71.64,60-41,12.48,14.33,35.41,27.56,54.67-11.55,5.2-10.57,17.25-3.55,28.29,8.74C178.75,164.47,194.22,71,221.78,91c10.94,7.94,18.75,12.42,24.32,14.77h0Z" transform="translate(0 -35.91)"/></svg>