<svg id="Sniggle" xmlns="http://www.w3.org/2000/svg" viewBox="0 0 246.96 132.66"><defs><style>.sniggle-1{fill:#e28924;}</style></defs><path class="sniggle-1" d="M246.1,14.2c-3.57,4.17,1.61,28.19-12,9.78a63.75,63.75,0,0,0-24.91-20.5c-15.93-7.2-30.8-6.27-38.57,32.94C160,90.19,131.5,27.28,108.88,32,85.32,36.87,100,82.82,50.66,48,33.15,35.6,23.26,62.65,15.85,89.61c-4.39,16-13.71,10.91-15.85,10.81v32.15c36.55,2.87,30.9-63.31,41.33-69.42C44.3,61.41,59.59,66,67,75.55c.48.61.95,1.23,1.47,1.8C80.67,91,92.4,93.75,111.26,55.44c5.2-10.57,18,8.46,29,20.75,35.79,39.8,45.62-66.52,73.18-46.52,10.94,7.94,27.91,26.09,33.48,28.44Z" transform="translate(0 0)"/></svg>