<svg id="Sniggle" class="noDesktop" xmlns="http://www.w3.org/2000/svg" viewBox="0 0 247.2 90.35"><defs><style>.sniggle-1{fill:#e28924;}</style></defs><path class="sniggle-1" d="M246.65,48.63c-2.33,2-6.9,1.2-8.41-1.41a62.36,62.36,0,0,0-16-18.32c-13.88-10.62-28.57-13.09-45,23.34-22.58,49.95-36.07-17.79-59.17-18.34-24-.58-20.21,47.49-60.33,2.38-14.24-16-30,8.07-43.34,32.64-7.91,14.59-12.91,8.89-15,8.31v33.94c34.94,11.08,34.24-58.65,45.79-62.24,3.28-1,17.12,7,22.19,17.9.33.71.64,1.42,1,2.09,8.8,16,19.58,21.4,46.64-11.63,7.46-9.11,15.61,12.32,23.57,26.79,25.83,46.88,59.53-54.44,81.83-28.71,8.86,10.22,21.27,31.75,26.16,35.3Z" transform="translate(0.55 -22.01)"/></svg>