<svg id="Ebene_1" data-name="Ebene 1" xmlns="http://www.w3.org/2000/svg" viewBox="0 0 184.33 226.22"><defs><style>.cls-1,.cls-5{fill:#262626;}.cls-1,.cls-2,.cls-6{stroke:#1d1d1b;stroke-miterlimit:10;}.cls-2,.cls-3{fill:#fff;}.cls-4{isolation:isolate;}.cls-6{fill:none;}.cls-7{fill:#194a9d;}.cls-8{fill:#e28924;}</style></defs><path class="cls-1" d="M220.41,151c0-19.46-25.25-35.25-56.4-35.25s-56.4,15.79-56.4,35.25S132.86,186.2,164,186.2,220.41,170.42,220.41,151Zm-102.78.17c0-15.27,21.37-27.65,47.73-27.65s47.73,12.38,47.73,27.65-21.37,27.67-47.73,27.67S117.63,166.4,117.63,151.12Z" transform="translate(-39.16 -21.02)"/><path class="cls-1" d="M175.87,105.16v80.22a11.37,11.37,0,0,1-11.37,11.37H95.65a11.37,11.37,0,0,1-11.37-11.37V105.16Z" transform="translate(-39.16 -21.02)"/><circle class="cls-2" cx="93.79" cy="129.94" r="10.06"/><rect class="cls-3" x="68.45" y="124.75" width="22.61" height="10.38"/><g class="cls-4"><path class="cls-5" d="M49,239a9.66,9.66,0,0,1-5.31-1.37,8.62,8.62,0,0,1-3.21-3.78,15.85,15.85,0,0,1-1.28-5.61L43.72,227a20.16,20.16,0,0,0,.62,3.78,6.79,6.79,0,0,0,1.57,3A4,4,0,0,0,49,234.93a3.88,3.88,0,0,0,3-1.12,4.54,4.54,0,0,0,1-3.21,6.57,6.57,0,0,0-1.14-4A21.21,21.21,0,0,0,49,223.49L42.81,218a10.36,10.36,0,0,1-2.69-3.48,11.16,11.16,0,0,1-.86-4.67,8.3,8.3,0,0,1,2.32-6.29,8.75,8.75,0,0,1,6.33-2.24,11.82,11.82,0,0,1,3.85.57,6.73,6.73,0,0,1,2.78,1.76,8.51,8.51,0,0,1,1.78,3,16.84,16.84,0,0,1,.89,4.22l-4.37,1.18a19.36,19.36,0,0,0-.55-3.35,5,5,0,0,0-1.44-2.46,4.22,4.22,0,0,0-2.94-.93,4.14,4.14,0,0,0-3,1,4,4,0,0,0-1.07,3,6,6,0,0,0,.57,2.78,8.15,8.15,0,0,0,1.84,2.24l6.25,5.47a19.65,19.65,0,0,1,3.69,4.35,11,11,0,0,1,1.59,6,9.35,9.35,0,0,1-1.14,4.72,7.71,7.71,0,0,1-3.12,3A9.64,9.64,0,0,1,49,239Z" transform="translate(-39.16 -21.02)"/><path class="cls-5" d="M68.6,238.94a7.84,7.84,0,0,1-4.9-1.3A6.34,6.34,0,0,1,61.47,234a23.75,23.75,0,0,1-.57-5.51V222.4a23.82,23.82,0,0,1,.59-5.68,6.29,6.29,0,0,1,2.26-3.6,8,8,0,0,1,4.85-1.25,8.8,8.8,0,0,1,4.45.93,4.85,4.85,0,0,1,2.16,2.78,15.42,15.42,0,0,1,.59,4.59v1.54H71.38v-1.59a12.4,12.4,0,0,0-.23-2.74,2.4,2.4,0,0,0-.82-1.45,2.65,2.65,0,0,0-1.68-.46,2.68,2.68,0,0,0-1.82.55,2.94,2.94,0,0,0-.85,1.84,25,25,0,0,0-.2,3.54v8.29a10.43,10.43,0,0,0,.64,4.51,2.37,2.37,0,0,0,2.27,1.14,2.46,2.46,0,0,0,1.8-.57,2.78,2.78,0,0,0,.73-1.62,15.41,15.41,0,0,0,.16-2.37v-2.14H75.8v1.82a14.94,14.94,0,0,1-.61,4.56A5.22,5.22,0,0,1,73,237.94,8.15,8.15,0,0,1,68.6,238.94Z" transform="translate(-39.16 -21.02)"/><path class="cls-5" d="M80.27,238.58V201.66h4.87V215a14.34,14.34,0,0,1,3-2.19,7.34,7.34,0,0,1,3.64-.91,3.27,3.27,0,0,1,2.39.82,4.44,4.44,0,0,1,1.19,2.05,9.26,9.26,0,0,1,.34,2.51v21.33H90.8V218.66a4.82,4.82,0,0,0-.41-2.19,1.75,1.75,0,0,0-1.69-.77,3.83,3.83,0,0,0-1.8.5,10,10,0,0,0-1.76,1.23v21.15Z" transform="translate(-39.16 -21.02)"/><path class="cls-5" d="M103.46,238.58l-4.23-26.34h4L106,231.65l3.51-19.41h3.74l3.5,19.32,2.74-19.32h4l-4.38,26.34H115l-3.6-18.6-3.55,18.6Z" transform="translate(-39.16 -21.02)"/><path class="cls-5" d="M134.5,238.94a8.11,8.11,0,0,1-4.79-1.21,6.35,6.35,0,0,1-2.35-3.55,21.65,21.65,0,0,1-.66-5.77v-6a20.9,20.9,0,0,1,.69-5.84,6.21,6.21,0,0,1,2.39-3.5,8.18,8.18,0,0,1,4.72-1.19,7.37,7.37,0,0,1,4.9,1.37,6.79,6.79,0,0,1,2.07,3.94,33.22,33.22,0,0,1,.5,6.17v2.15H131.58v5.28a9.28,9.28,0,0,0,.3,2.6,2.64,2.64,0,0,0,1,1.48,2.84,2.84,0,0,0,1.71.48,2.39,2.39,0,0,0,1.67-.52,2.82,2.82,0,0,0,.77-1.51,11.07,11.07,0,0,0,.21-2.3v-1.59h4.73v1a10.32,10.32,0,0,1-1.68,6.24Q138.55,238.94,134.5,238.94Zm-2.92-16.09h5.61v-2.37a17.49,17.49,0,0,0-.19-2.75,3,3,0,0,0-.75-1.69,2.46,2.46,0,0,0-1.8-.57,2.6,2.6,0,0,0-1.8.55,3.11,3.11,0,0,0-.84,1.84,22.05,22.05,0,0,0-.23,3.58Z" transform="translate(-39.16 -21.02)"/><path class="cls-5" d="M146.39,247.23v-35h4.88v2.09a8.28,8.28,0,0,1,2.09-1.73,5.6,5.6,0,0,1,2.92-.73,4.76,4.76,0,0,1,3.26,1.07,6.65,6.65,0,0,1,1.8,2.69,14.08,14.08,0,0,1,.77,3.28,27.44,27.44,0,0,1,.19,2.85v6.38a24.67,24.67,0,0,1-.55,5.26,8.38,8.38,0,0,1-2,4,5.28,5.28,0,0,1-4,1.53,4.51,4.51,0,0,1-2.5-.71,10.65,10.65,0,0,1-2-1.61v10.61Zm8.39-12.12a2,2,0,0,0,1.82-.93,6.11,6.11,0,0,0,.68-2.53c.09-1.07.14-2.23.14-3.51v-6.38a23.75,23.75,0,0,0-.18-3,4.73,4.73,0,0,0-.78-2.21,2.14,2.14,0,0,0-1.87-.82,4.28,4.28,0,0,0-1.82.41,6.23,6.23,0,0,0-1.5,1v16.86a6.94,6.94,0,0,0,1.55.84A5.23,5.23,0,0,0,154.78,235.11Z" transform="translate(-39.16 -21.02)"/><path class="cls-5" d="M166.72,238.58V212.24h4.87v2.59a13.75,13.75,0,0,1,2.92-2.09,7.19,7.19,0,0,1,3.51-.87,3.37,3.37,0,0,1,2.44.82,4.51,4.51,0,0,1,1.18,2.05,9.26,9.26,0,0,1,.34,2.51v21.33h-4.87V218.66a4.82,4.82,0,0,0-.41-2.19,1.75,1.75,0,0,0-1.69-.77,3.58,3.58,0,0,0-1.71.48,10.31,10.31,0,0,0-1.71,1.16v21.24Z" transform="translate(-39.16 -21.02)"/><path class="cls-5" d="M187,208.32v-5.11h4.88v5.11Zm0,30.26V212.24h4.88v26.34Z" transform="translate(-39.16 -21.02)"/><path class="cls-5" d="M204.17,238.94a6.27,6.27,0,0,1-3.3-.77,4.46,4.46,0,0,1-1.82-2.19,8.86,8.86,0,0,1-.57-3.33V215.47H195.7v-3.23h2.78v-7.71h4.87v7.71h4.24v3.23h-4.24v16.86a3.75,3.75,0,0,0,.5,2.21,2.31,2.31,0,0,0,1.92.66c.24,0,.52,0,.84,0l.93-.09v3.6c-.6.09-1.16.16-1.68.2S204.78,238.94,204.17,238.94Z" transform="translate(-39.16 -21.02)"/><path class="cls-5" d="M210.19,238.58v-3.29l8.06-19.41H211v-3.64H223.5v2.64l-8.12,20h7.93v3.7Z" transform="translate(-39.16 -21.02)"/></g><path class="cls-6" d="M138.9,58" transform="translate(-39.16 -21.02)"/><path id="Pfad_17" data-name="Pfad 17" class="cls-7" d="M148.85,21s-27.37,2.06-28.26,25c4.72,16.2,33.9,20.79,25.32,31.5-11.77,14.73-35,14.13-35,14.13S136.2,79.9,133,71.65s-28.85-13.83-25.62-32.09S148.85,21,148.85,21Z" transform="translate(-39.16 -21.02)"/><path id="Pfad_17-2" data-name="Pfad 17" class="cls-8" d="M153.09,30s-27.38,2.06-28.26,25c4.72,16.19,33.89,20.79,25.31,31.5-11.77,14.72-35,14.13-35,14.13s25.32-11.77,22.08-20-28.85-13.83-25.61-32.09S153.09,30,153.09,30Z" transform="translate(-39.16 -21.02)"/></svg>